<?xml version="1.0" encoding="UTF-8" standalone="no"?>
<!-- Created with Inkscape (http://www.inkscape.org/) -->

<svg
   version="1.1"
   id="svg1458"
   width="512"
   height="512"
   viewBox="0 0 512 512"
   sodipodi:docname="android-chrome-512x512.png"
   inkscape:export-filename="../gadzilla-favicon32.svg"
   inkscape:export-xdpi="6"
   inkscape:export-ydpi="6"
   xmlns:inkscape="http://www.inkscape.org/namespaces/inkscape"
   xmlns:sodipodi="http://sodipodi.sourceforge.net/DTD/sodipodi-0.dtd"
   xmlns="http://www.w3.org/2000/svg"
   xmlns:svg="http://www.w3.org/2000/svg">
  <defs
     id="defs1462" />
  <sodipodi:namedview
     id="namedview1460"
     pagecolor="#ffffff"
     bordercolor="#000000"
     borderopacity="0.25"
     inkscape:showpageshadow="2"
     inkscape:pageopacity="0.0"
     inkscape:pagecheckerboard="0"
     inkscape:deskcolor="#d1d1d1"
     showgrid="false" />
  <g
     inkscape:groupmode="layer"
     inkscape:label="Image"
     id="g1464">
    <rect
       style="fill:#ff4444;fill-opacity:1;stroke-width:6.55645"
       id="rect2850"
       width="230.4008"
       height="351.32712"
       x="141.97931"
       y="72.251945" />
  </g>
  <path
     style="fill:#525050;fill-opacity:1"
     d="M 242.1849,510.6399 C 136.68112,503.59731 46.498635,433.57379 14.404325,333.77632 c -8.39811,-26.11397 -12.04439,-49.8788 -12.04439,-78.5 0,-22.09423 1.42387,-35.46316 5.96433,-56 C 29.558615,103.23176 105.64034,27.150028 201.6849,5.9156792 c 20.53684,-4.540459 33.90577,-5.96432905 56,-5.96432905 22.09423,0 35.46316,1.42387005 56,5.96432905 96.04455,21.2343488 172.12628,97.3160808 193.36063,193.3606408 4.54046,20.53684 5.96433,33.90577 5.96433,56 0,22.09423 -1.42387,35.46316 -5.96433,56 -20.8025,94.09127 -94.13884,169.07279 -187.86063,192.07497 -22.87611,5.61449 -55.63132,8.71501 -77,7.28861 z m 40,-104.74765 c 32.05919,-7.29412 56.17086,-23.52621 66.97021,-45.08466 5.25114,-10.48272 6.85468,-18.12062 6.32146,-30.11002 -0.38477,-8.65123 -0.89331,-11.04127 -3.56338,-16.74708 -3.93632,-8.41175 -10.60808,-15.09679 -19.92781,-19.96752 -13.42607,-7.0168 -29.94951,-9.88203 -70.27819,-12.1865 -26.52204,-1.51553 -38.70096,-3.27981 -44.97249,-6.51488 -13.02364,-6.71803 -13.46236,-18.1554 -1.12202,-29.25043 l 5.02736,-4.52003 6.77243,1.57884 c 4.71653,1.09955 11.78133,1.58032 23.27243,1.58372 18.01462,0.005 27.46192,-1.63336 40.2169,-6.97585 20.64603,-8.6477 36.36713,-26.73103 41.22684,-47.42152 3.14361,-13.38409 1.24507,-34.96595 -3.96166,-45.03465 -0.89625,-1.73317 -1.48387,-3.27818 -1.30582,-3.43336 0.17806,-0.15519 6.57819,-1.20049 14.22253,-2.32291 18.78662,-2.75843 19.01282,-2.94001 19.38741,-15.56381 l 0.28621,-9.64527 h -29.89788 -29.8979 l -6.87683,-3.11811 c -22.29692,-10.1099 -52.57544,-11.59908 -76.8998,-3.78215 -13.29531,4.27261 -22.72595,9.90397 -31.62063,18.88176 -12.81116,12.93089 -18.84463,28.14485 -18.84463,47.5185 0,23.35253 9.72902,42.557 28.09278,55.45337 l 6.82398,4.79229 -5.9113,3.64866 c -6.56669,4.0532 -15.94892,13.82624 -18.6715,19.44925 -4.61725,9.53612 -4.59406,23.68341 0.0518,31.611 2.78946,4.75985 8.90957,10.63053 13.62341,13.06815 l 3.1634,1.63586 -9.35366,4.56368 c -7.49336,3.65604 -10.86477,6.07661 -16.95156,12.17072 -10.05114,10.06319 -12.28716,15.45109 -12.28716,29.60702 0,11.99012 2.05697,18.2048 9.14757,27.63737 10.83538,14.41424 33.57943,25.50923 60.23748,29.38498 12.82151,1.8641 47.74255,1.31361 57.5,-0.90642 z m -49.78692,-26.70652 c -15.44137,-2.25929 -29.28421,-8.41406 -36.18364,-16.08789 -12.71814,-14.14564 -9.04147,-33.57041 8.73644,-46.15673 9.84229,-6.96811 11.45118,-7.57488 17.52896,-6.61092 2.91217,0.46188 13.71217,1.32697 24,1.92243 37.15363,2.15042 50.08517,3.96396 59.53341,8.34902 11.35283,5.26901 16.19774,14.33199 13.75374,25.72797 -4.66083,21.7327 -30.08878,34.18088 -69.08199,33.81887 -6.875,-0.0638 -15.10411,-0.49706 -18.28692,-0.96275 z M 243.1849,219.27798 c -11.15777,-1.26789 -19.84352,-4.79407 -27.57767,-11.19579 -3.4528,-2.85796 -8.81792,-10.97544 -10.39778,-15.73195 -6.09107,-18.33852 -2.41531,-38.45147 9.06664,-49.61066 8.84577,-8.5971 20.08024,-12.4337 36.40881,-12.4337 24.13445,0 38.75001,8.72108 46.03742,27.47044 3.32779,8.56189 3.31872,25.26651 -0.0185,34 -5.2928,13.85141 -15.08696,22.38261 -29.77041,25.93152 -7.57467,1.83075 -16.34953,2.4109 -23.74855,1.57014 z"
     id="path1989" />
</svg>
